<?xml version="1.0" encoding="utf-8"?>
<!-- Generator: Adobe Illustrator 28.0.0, SVG Export Plug-In . SVG Version: 6.00 Build 0)  -->
<svg version="1.1" id="Layer_1" xmlns="http://www.w3.org/2000/svg" xmlns:xlink="http://www.w3.org/1999/xlink" x="0px" y="0px"
	 viewBox="0 0 512 512" style="enable-background:new 0 0 512 512;" xml:space="preserve">
<path d="M32,64C14.3,64,0,78.3,0,96s14.3,32,32,32h288c17.7,0,32-14.3,32-32s-14.3-32-32-32H32z"/>
<path d="M32,224c-17.7,0-32,14.3-32,32s14.3,32,32,32h288c17.7,0,32-14.3,32-32s-14.3-32-32-32H32z"/>
<path d="M32,384c-17.7,0-32,14.3-32,32s14.3,32,32,32h288c17.7,0,32-14.3,32-32s-14.3-32-32-32H32z"/>
<path d="M451.13,124.88c4.17,4.17,10.93,4.17,15.09,0l42.65-42.65c3.07-3.07,3.97-7.63,2.3-11.63c-1.67-4-5.53-6.6-9.86-6.6
	l-85.3,0.03c-4.3,0-8.2,2.6-9.86,6.6c-1.67,4-0.73,8.56,2.3,11.63l42.65,42.65L451.13,124.88z"/>
<path d="M451.13,284.88c4.17,4.17,10.93,4.17,15.09,0l42.65-42.65c3.07-3.07,3.97-7.63,2.3-11.63c-1.67-4-5.53-6.6-9.86-6.6
	l-85.3,0.03c-4.3,0-8.2,2.6-9.86,6.6c-1.67,4-0.73,8.56,2.3,11.63l42.65,42.65L451.13,284.88z"/>
<path d="M451.13,444.88c4.17,4.17,10.93,4.17,15.09,0l42.65-42.65c3.07-3.07,3.97-7.63,2.3-11.63c-1.67-4-5.53-6.6-9.86-6.6
	l-85.3,0.03c-4.3,0-8.2,2.6-9.86,6.6s-0.73,8.56,2.3,11.63l42.65,42.65L451.13,444.88z"/>
</svg>
